<?xml version="1.0" standalone="no"?>
<!DOCTYPE svg PUBLIC "-//W3C//DTD SVG 1.1//EN" "http://www.w3.org/Graphics/SVG/1.1/DTD/svg11.dtd" >
<!--
2013-9-30: Created.
-->
<svg>
<metadata>
Created by iconfont
</metadata>
<defs>

<font id="iconfont" horiz-adv-x="1024" >
  <font-face
    font-family="iconfont"
    font-weight="500"
    font-stretch="normal"
    units-per-em="1024"
    ascent="896"
    descent="-128"
  />
    <missing-glyph />
    
    <glyph glyph-name="-calendar" unicode="&#58881;" d="M845.914 784.696V851.478h-66.784v-66.782h-133.564V851.478h-66.784v-66.782h-133.564V851.478h-66.784v-66.782h-133.564V851.478H178.086v-66.782H0v-801.392h66.782v-66.782h890.436v66.782H1024V784.696zM445.218 183.652H512v-133.566h-66.782zM311.652 495.304h333.914V384h66.782v178.086H311.652zM512 317.218h66.782v-133.566H512zM578.782 384h66.782v-66.782h-66.782zM111.304 784.696H0v-801.392h66.782v-66.782h44.522V673.392H1024V784.696zM66.782-16.696h890.434v-66.782H66.782zM845.914 784.696V851.478h-66.784v-66.782h-133.564V851.478h-66.784v-66.782h-133.564V851.478h-66.784v-66.782h-133.564V851.478H178.086v-66.782H0v-801.392h66.782V717.914h111.304v-66.784h66.784V717.914h133.564v-66.784h66.784V717.914h133.564v-66.784h66.784V717.914h133.564v-66.784h66.784V717.914h111.304v-734.61H1024V784.696z"  horiz-adv-x="1024" />

    
    <glyph glyph-name="-smartphone" unicode="&#58882;" d="M779.13 829.218V896h-534.26v-66.782H178.086v-890.436h66.784V-128h534.26v66.782h66.784V829.218zM178.086 762.434h667.826v-756.87H178.086zM311.652 294.956h66.782v-66.782h-66.782zM378.434 361.74h66.782v-66.782h-66.782zM445.218 428.522H512v-66.782h-66.782zM512 495.304h66.782v-66.782H512zM578.782 562.086h66.782v-66.782h-66.782zM645.566 628.87h66.782v-66.782h-66.782zM311.652 361.74v66.782h66.782v66.782h66.784v66.782H512v66.784h66.782V762.434h-133.564v-133.564h-66.784v-66.784h-66.782v-66.782H178.086v-133.564h66.784zM289.392 695.652V896h-44.522v-66.782H178.086v-133.566h66.784zM712.348 762.434v-133.564h133.566V762.434zM178.086 228.174v-66.782h133.566v66.782h-66.782zM178.086-61.218h66.784V-128h44.522V72.348H178.086zM244.87 896h534.26v-66.782h-534.26zM244.87-61.218h534.26V-128h-534.26zM779.13 829.218v-66.782h-534.26V829.218H178.086v-890.434h66.782v66.782h534.26v-66.782h66.782V829.218h-66.78z m-534.26-756.87V695.652h534.26v-623.304h-534.26z"  horiz-adv-x="1024" />

    
    <glyph glyph-name="-photo-camera" unicode="&#58883;" d="M957.218 617.74v66.782H734.608V751.304h-66.782V818.086H356.174v-66.782h-66.782v-66.782H66.782v-66.782H0v-667.826h1024V617.74zM712.348 461.914v66.782h-66.782v66.782H378.434v-66.782h-66.782v-66.782h-66.782v-267.132h66.782V128h66.782v-66.782h267.132V128h66.782v66.782h66.782V461.914zM411.826 428.522h89.044v-89.044h-89.044zM645.566 528.696v66.782H378.434v-66.782h-66.782v-66.782h-66.782v-267.132h66.782V128h44.522V461.914h22.26v22.26h333.914v44.522zM244.87 617.74h44.522V640h44.522v44.522h22.26v22.26h44.522V818.086h-44.522v-66.782h-66.782v-66.782H66.782v-66.782H0v-667.826h111.304V573.218h133.566zM957.218 617.74v-601.044H66.782V617.74H0v-667.826h1024V617.74zM378.434 595.478h267.13v-66.782H378.434zM378.434 128h267.13v-66.782H378.434zM712.348 461.914h66.782v-267.13h-66.782zM244.87 461.914h66.782v-267.13h-66.782zM311.652 528.696h66.782v-66.782h-66.782zM645.566 528.696h66.782v-66.782h-66.782zM311.652 194.782h66.782V128h-66.782zM645.566 194.782h66.782V128h-66.782zM289.392 751.304h66.782v-66.782h-66.782zM667.826 751.304h66.782v-66.782h-66.782zM66.782 684.522h222.608v-66.782H66.782zM734.608 684.522h222.608v-66.782H734.608zM356.174 818.086h311.652v-66.782H356.174z"  horiz-adv-x="1024" />

    
    <glyph glyph-name="-podium" unicode="&#58884;" d="M957.218 417.392h-178.088V751.304h-534.26v-333.912H0V16.696h1024V417.392zM779.13 617.74V751.304h-534.26v-333.912H0v-133.566h378.434V617.74zM712.348 417.392H1024v-133.566H712.348zM489.74 506.434h-66.784v-66.782h66.784v-155.826h66.782V550.956H489.74zM957.218 417.392h-178.086V751.304H244.87v-333.912H0V16.698h1024V417.39h-66.782z m0-333.914H66.782V350.608h244.868V684.522h400.696v-333.912h244.868v-267.132z"  horiz-adv-x="1024" />

    
    <glyph glyph-name="-star" unicode="&#58885;" d="M1024 562.082h-0.006v0.002H756.864v66.782h-66.782V717.91H623.3V829.214h-66.782V895.996h-89.042v-66.782h-66.782v-111.304h-66.784v-89.044h-66.782v-66.784H66.782v0.002H0v-178.086h66.782v-66.782h66.782v-445.214h178.086v66.782-0.002h111.304V5.566h178.086V-61.218h111.304v0.002-66.782h178.086V317.216h66.782v66.78H1024zM756.864 562.084v66.782h-66.782V717.91H623.3V829.214h-66.782V895.996h-89.042v-66.782h-66.782v-111.304h-66.784v-89.044h-66.782v-66.782H0v-133.564h267.128v66.782h66.782v66.782h66.784v89.044h66.782V762.432h89.042v-111.304h66.782v-89.044h66.782v-66.782h66.782v-66.782h267.13v133.564zM267.128 562.084H0v-178.086h66.782v111.304h200.346v66.782h66.782v66.782h-66.782zM66.782 384.002h66.782v-66.782H66.782zM400.694 829.216h66.782v-111.304h-66.782zM333.91 717.912h66.782v-89.042h-66.782zM556.518 829.216h66.782v-111.304h-66.782zM623.3 717.912h66.782v-89.042H623.3zM311.65 5.568h111.304v-66.782h-111.304zM133.564-83.476v-44.522h178.086v66.782h-111.304V317.216H133.564v-378.432zM890.43 384.002h66.782v-66.782h-66.782zM823.646-61.216h-111.302v-66.782h178.086V317.216h-66.784zM756.864 562.084v66.782h-66.782v-66.782h66.782v-66.782h200.348v-111.304h66.782v178.086zM601.04 5.568h111.304v-66.782H601.04zM467.476 895.998h89.042v-66.782h-89.042zM422.954 72.352h178.086v-66.782h-178.086z"  horiz-adv-x="1024" />

    
    <glyph glyph-name="-settings" unicode="&#58886;" d="M957.218 450.782v66.782h-66.782v133.566h66.782V762.434h-66.782V829.218h-111.304v-66.782h-133.566V829.218h-66.782V896h-133.566v-66.782h-66.782v-66.782h-133.566V829.218H133.566v-66.782H66.782v-111.304h66.782v-133.566H66.782v-66.782H0v-133.566h66.782v-66.782h66.782v-133.566H66.782v-111.304h66.782v-66.782h111.304v66.782h133.566v-66.782h66.782V-128h133.566v66.782h66.782v66.782h133.566v-66.782h111.304v66.782h66.782v111.304h-66.782v133.566h66.782v66.782H1024v133.566h-66.782z m-333.914-178.086v-66.782H400.696v66.782h-66.782V495.304h66.782v66.782h222.608v-66.782h66.782v-222.608h-66.782zM779.13 116.87h66.782v-66.782h-66.782zM133.566 762.434H66.782v-66.782h133.566V829.218H133.566zM445.218 829.218h-66.784v-66.784H512V896h-66.782zM845.914 695.652V829.218h-66.784v-66.784h-66.782v-66.782h66.782zM133.566 384v133.566H66.782v-66.784H0V384h66.782zM133.566 116.87H66.782v-66.784h133.566v133.566H133.566zM378.434 72.348v-66.782H512v66.782h-66.782zM823.652 517.566V384h66.782v133.566zM400.696 628.87h222.608v-66.782H400.696zM400.696 205.914h222.608v-66.782H400.696zM690.086 495.304h66.782v-222.608h-66.782zM267.13 495.304h66.782v-222.608h-66.782zM333.914 562.086h66.782v-66.782h-66.782zM623.304 562.086h66.782v-66.782h-66.782zM333.914 272.696h66.782v-66.782h-66.782zM623.304 272.696h66.782v-66.782h-66.782zM445.218 695.652V829.218h-66.784v-66.784h-133.564v-66.782zM66.782 762.434h66.782v-111.304H66.782zM133.566 829.218h111.304v-66.782H133.566zM779.13 829.218h111.304v-66.782h-111.304zM890.434 762.434h66.782v-111.304h-66.782zM779.13 695.652V762.434h-133.564V829.218h-66.784v-133.566zM445.218 896h133.566v-66.782h-133.566zM200.348 116.87V317.218H66.782v-66.784h66.784v-133.564zM66.782 116.87h66.782v-111.304H66.782zM133.566 5.566h111.304v-66.782H133.566zM578.782 72.348v-133.566h66.784v66.784h133.564v66.782zM890.434 250.434h66.784v66.784h-133.566v-200.348h66.782zM890.434 116.87h66.782v-111.304h-66.782zM779.13 5.566h111.304v-66.782h-111.304zM244.87 72.348v-66.782h133.564v-66.784h66.784v133.566zM445.218-61.218h133.566V-128h-133.566zM957.218 450.782v66.784h-66.784v133.564h-66.782V450.78l133.566 0.002v-133.564H1024v133.564zM66.782 450.782h133.566V651.13H133.566v-133.564H66.782v-66.784H0v-133.564h66.782z"  horiz-adv-x="1024" />

    
    <glyph glyph-name="-heart" unicode="&#58887;" d="M957.17 684.504V751.282h-66.78v66.78H623.274v-66.78h-66.78v-66.778h-89.038V751.282h-66.778v66.78H133.56v-66.78H66.782v-66.778H0.002v-400.674h66.78v-66.78H133.56v-66.78h66.78v-66.778h133.558v-66.78h133.558v-66.778h89.038v66.778h133.56v66.78h133.558v66.778h66.778v66.78h66.78v66.752H1024V684.478zM623.274 818.062v-66.78h-66.78v-66.778h-89.038v-66.78H623.274v66.78h66.78V818.062zM133.56 751.282H66.782v-66.778H0.002v-66.78H133.56v66.78h66.78V818.062H133.56zM66.78 751.288h66.78v-66.78H66.78zM890.388 751.288h66.78v-66.78h-66.78zM556.492 751.288h66.78v-66.78h-66.78zM66.78 283.834h66.78v-66.78H66.78zM890.388 283.834h66.78v-66.78h-66.78zM333.896 83.496h133.558v-66.78h-133.558zM556.492 83.496h133.558v-66.78h-133.558zM400.674 751.288h66.78v-66.78h-66.78zM467.454 684.508h89.038v-66.78h-89.038zM690.052 150.276h133.558v-66.78h-133.558zM200.338 150.276h133.558v-66.78h-133.558zM133.558 217.054h66.78v-66.78h-66.78zM823.61 217.054h66.78v-66.78h-66.78zM467.454 16.716h89.038v-66.78h-89.038zM133.558 818.066h267.116v-66.78H133.558zM623.272 818.066h267.116v-66.78H623.272zM0 684.508h66.78v-400.674H0zM957.168 684.508h66.78v-400.674h-66.78z"  horiz-adv-x="1024" />

    
    <glyph glyph-name="-shopping-bag-" unicode="&#58888;" d="M957.218 896H66.782v-957.218h66.784V-128h756.868v66.782h66.784zM200.348 896H66.782v-957.218h66.784V-128h66.782V762.434h756.87V896zM957.218 896H66.782V-61.218h66.784V-128h756.868v66.782H133.566V829.218h756.868v-890.436h66.784zM623.304 584.348h66.782v-66.782h-66.782zM690.086 762.434h66.782v-178.086h-66.782zM400.696 517.566h222.608v-66.782H400.696zM333.914 584.348h66.782v-66.782h-66.782zM267.13 762.434h66.782v-178.086h-66.782z"  horiz-adv-x="1024" />

    
    <glyph glyph-name="-trophy" unicode="&#58889;" d="M823.652 740.174V896H200.348v-155.826H0v-267.13h66.782v-66.784h66.784v-66.782h66.782v-66.782h66.782v-66.782h66.784v-66.784h66.782v-66.782h-133.566v-66.782h-66.782V-128H823.652v133.566h-66.782v66.782h-133.566v66.782h66.782v66.784h66.784v66.782h66.782v66.782h66.782V406.26h66.784v66.784H1024V740.174zM333.914 896H200.348v-222.608h66.782v-66.784h66.784V762.434h489.738V896zM200.348 539.826h133.566v-66.782h-133.566zM267.13 272.696h66.782v-66.782h-66.782zM400.696 139.13v-66.782h-133.566v-66.782H467.478V205.914h-133.564v-66.784zM66.782 473.044h66.782v-66.782H66.782zM200.348 339.478v-66.782h66.782V406.26H133.566v-66.782zM267.13 473.044v133.564H133.566v-66.782h66.782v-66.782zM756.87-61.218h-489.74v66.784h-66.782V-128H823.652v133.566h-66.782zM690.086 272.696h66.782v-66.782h-66.782zM556.522 205.914v-200.348h200.348v66.782h-133.566v66.782h66.782v66.784h-66.782zM890.434 473.044h66.782v-66.782h-66.782zM823.652 539.826h66.782v66.782h-133.564v-133.564h66.782zM756.87 406.26v-133.564h66.782v66.782h66.782V406.26h-66.782zM957.218 740.174h-133.566V896H200.348v-155.826H0v-267.13h66.782V673.392h200.348V829.218h489.74v-155.826h200.348v-200.348H1024V740.174z"  horiz-adv-x="1024" />

    
    <glyph glyph-name="-like" unicode="&#58890;" d="M957.218 473.044v66.782H756.87V829.218h-66.784V896H489.74v-289.392h-66.784v-133.564h-66.782v-66.784H0v-467.478h356.174V-128h534.26v66.782h66.784V72.348H1024V473.044zM0.032 406.26H0v-66.782h0.032v-333.912H0v-66.784h289.392V406.26zM690.086 829.218V896H489.74v-289.392h-66.784v-133.564h-66.782v-66.784H0v-133.564h356.174v66.782h66.782V406.26h66.784v133.566h66.782V762.434h200.348V829.218zM823.652 5.566h66.782v-66.784h66.784v133.566h-133.566zM422.956 606.608h66.782v-133.566h-66.782zM356.174 473.044h66.782v-66.782h-66.782zM356.174-61.218h534.26V-128h-534.26zM289.392 5.566V339.478h66.782V406.26H0V-61.218H356.172v66.782h-66.78z m-222.61 0V339.478h155.826v-333.914H66.782zM556.522 829.218h133.564V896H489.74v-289.392h66.782zM957.218 473.044V384h-133.566v-66.782h133.566v-89.044h-133.566v-66.782h133.566v-89.044H1024V473.044zM690.086 473.044h267.132v66.782H756.87V829.218h-66.784v-289.392z"  horiz-adv-x="1024" />

    
    <glyph glyph-name="-smile" unicode="&#58891;" d="M957.218 584.348v111.304h-66.784V762.434h-66.782V829.218h-111.304V896H311.652v-66.782h-111.304v-66.784H133.566v-66.782H66.782v-111.304l-66.766-0.006v-400.696h66.766v-111.298h66.784V5.566h66.782V-61.218h111.304V-128h400.696v66.782h111.304V5.566h66.782V72.348h66.784v111.298h22.274v0.006H1024V584.348zM957.218 584.348v111.304h-66.784V762.434h-66.782V829.218h-111.304V896H311.652v-66.782h-111.304v-66.784H133.566v-66.782H66.782v-111.304H0v-66.782h133.566v111.304h66.782v66.782h66.782V762.434h489.74v-66.782h66.782v-66.782h66.782v-111.304H1024v66.782zM200.348 829.218h111.304v-66.782h-111.304zM133.566 762.434h66.782v-66.782H133.566zM66.782 695.652h66.782v-111.304H66.782zM66.782 183.652h66.782v-111.304H66.782zM133.566 72.348h66.782v-66.782H133.566zM200.348 5.566h111.304v-66.782h-111.304zM311.652 896h400.696v-66.782H311.652zM311.652-61.218h400.696V-128H311.652zM0 584.348h66.782v-400.696H0zM712.348 829.218h111.304v-66.782h-111.304zM823.652 762.434h66.782v-66.782h-66.782zM890.434 695.652h66.782v-111.304h-66.782zM890.434 183.652h66.782v-111.304h-66.782zM823.652 72.348h66.782v-66.782h-66.782zM712.348 5.566h111.304v-66.782h-111.304zM957.218 584.348H1024v-400.696h-66.782zM267.13 272.696h66.782v-133.566h-66.782zM690.086 272.696h66.782v-133.566h-66.782zM333.914 139.13h356.174v-66.782H333.914zM244.87 628.87h133.566V361.74h-133.566zM645.566 628.87h133.566V361.74h-133.566z"  horiz-adv-x="1024" />

    
    <glyph glyph-name="-email" unicode="&#58892;" d="M0 740.174h1024v-712.348H0zM1024 606.608V740.174H0v-133.566h66.782v-66.782h66.784v-66.782h66.782v-66.784h66.782v-66.782h111.304v-66.782h267.132v66.782h111.304V406.26h66.782v66.784h66.782v66.782h66.784v66.782zM1024 740.174H0v-712.348h111.304V628.87H1024zM133.566 539.826h66.782v-66.782H133.566zM200.348 473.044h66.782v-66.782h-66.782zM267.13 406.26h111.304v-66.782h-111.304zM823.652 539.826h66.782v-66.782h-66.782zM756.87 473.044h66.782v-66.782h-66.782zM645.566 406.26h111.304v-66.782h-111.304zM378.434 339.478h267.13v-66.782H378.434zM0 740.174v-712.348h1024V740.174H0z m957.218-133.566h-66.782v-66.782h66.782v-445.218H66.782V539.826h66.782v66.782H66.782v66.782h890.434v-66.782z"  horiz-adv-x="1024" />

    
    <glyph glyph-name="-shopping-bag" unicode="&#58893;" d="M890.434 651.13H133.566v-712.348h66.782V-128h623.304v66.782h66.782zM267.13 651.13H133.566v-712.348h66.782V-128h66.782V517.566h623.304v133.564zM333.914 829.218h66.782v-66.782h-66.782zM400.696 896h222.608v-66.782H400.696zM890.434 651.13h-133.564V762.438h-66.776v66.78h-66.784v-66.784h66.776v-111.304H333.914V762.434h-66.784v-111.304H133.566V-61.218h66.782V-128h623.304v66.782H200.348V584.348h66.782v-66.782h66.784v66.782h356.172v-66.78h66.784v66.78h66.782v-645.566h66.782z"  horiz-adv-x="1024" />

    
    <glyph glyph-name="-gift" unicode="&#58894;" d="M1024 495.304v133.566h-66.782V829.218h-66.784V896H690.086v-66.782h-66.782v-66.784H400.696V829.218h-66.782V896H133.566v-66.782H66.782v-200.348H0v-133.566h66.782v-556.522h0.016v-0.006h66.768V-128H890.434v66.772h66.798V428.51h-0.014v66.794zM890.434 829.218V896H690.086v-66.782h-66.782v-66.784H400.696V829.218h-66.782V896H133.566v-66.782H66.782v-267.132h333.914V-128h222.608V562.086h333.914V829.218zM333.914 695.652V762.434h-133.566v-200.348h200.348v133.566zM690.086 695.652V762.434h133.566v-200.348H623.304v133.566zM333.914 829.218h66.782v-66.782h-66.782zM133.566 896h200.348v-66.782H133.566zM623.304 829.218h66.782v-66.782h-66.782zM400.696 762.434h222.608v-66.782H400.696zM1024 628.87h-66.782V829.218h-66.782V896H690.086v-66.782h200.348v-200.348H690.086v66.782h-66.782v-66.782H400.696v66.782h-66.782v-66.782H133.566V829.218H66.782v-200.348H0v-133.564h66.782v-556.522h66.782V-128h756.87v66.782H623.304v489.74h267.13v-489.74h66.782V495.304H1024v133.566z m-467.478-66.784v-66.782h-89.044v66.782h89.044z m-155.826 0v-66.782H66.782v66.782h333.914zM133.566-61.218v489.74h267.13v-489.74H133.566z m422.956 0h-89.044v489.74h89.044v-489.74z m400.696 556.522H623.304v66.782h333.914v-66.782z"  horiz-adv-x="1024" />

    
    <glyph glyph-name="-dead" unicode="&#58895;" d="M957.218 584.348v111.304h-66.784V762.434h-66.782V829.218h-111.304V896H311.652v-66.782h-111.304v-66.784H133.566v-66.782H66.782v-111.304l-66.766-0.006v-400.696h66.766v-111.298h66.784V5.566h66.782V-61.218h111.304V-128h400.696v66.782h111.304V5.566h66.782V72.348h66.784v111.298h22.274v0.006H1024V584.348zM957.218 584.348v111.304h-66.784V762.434h-66.782V829.218h-111.304V896H311.652v-66.782h-111.304v-66.784H133.566v-66.782H66.782v-111.304H0v-66.782h133.566v111.304h66.782v66.782h66.782V762.434h489.74v-66.782h66.782v-66.782h66.782v-111.304H1024v66.782zM200.348 829.218h111.304v-66.782h-111.304zM133.566 762.434h66.782v-66.782H133.566zM66.782 695.652h66.782v-111.304H66.782zM66.782 183.652h66.782v-111.304H66.782zM133.566 72.348h66.782v-66.782H133.566zM200.348 5.566h111.304v-66.782h-111.304zM311.652 896h400.696v-66.782H311.652zM311.652-61.218h400.696V-128H311.652zM0 584.348h66.782v-400.696H0zM712.348 829.218h111.304v-66.782h-111.304zM823.652 762.434h66.782v-66.782h-66.782zM890.434 695.652h66.782v-111.304h-66.782zM890.434 183.652h66.782v-111.304h-66.782zM823.652 72.348h66.782v-66.782h-66.782zM712.348 5.566h111.304v-66.782h-111.304zM957.218 584.348H1024v-400.696h-66.782zM690.086 272.696h-66.782v66.782H400.696v-66.782h-66.782v-200.348h66.782v-66.782h222.608v66.782h66.782zM311.652 606.608h-66.782v-89.042H155.826v-66.784h89.044v-89.042h66.782v89.042h89.044v66.784h-89.044zM868.174 517.566h-89.044v89.042h-66.782v-89.042h-89.044v-66.784h89.044v-89.042h66.782v89.042h89.044zM333.914 272.696h66.782v-200.348h-66.782zM623.304 272.696h66.782v-200.348h-66.782zM400.696 72.348h222.608v-66.782H400.696zM400.696 339.478h222.608v-66.782H400.696z"  horiz-adv-x="1024" />

    
    <glyph glyph-name="-bored" unicode="&#58896;" d="M957.218 584.348v111.304h-66.784V762.434h-66.782V829.218h-111.304V896H311.652v-66.782h-111.304v-66.784H133.566v-66.782H66.782v-111.304l-66.766-0.006v-400.696h66.766v-111.298h66.784V5.566h66.782V-61.218h111.304V-128h400.696v66.782h111.304V5.566h66.782V72.348h66.784v111.298h22.274v0.006H1024V584.348zM957.218 584.348v111.304h-66.784V762.434h-66.782V829.218h-111.304V896H311.652v-66.782h-111.304v-66.784H133.566v-66.782H66.782v-111.304H0v-66.782h133.566v111.304h66.782v66.782h66.782V762.434h489.74v-66.782h66.782v-66.782h66.782v-111.304H1024v66.782zM200.348 829.218h111.304v-66.782h-111.304zM133.566 762.434h66.782v-66.782H133.566zM66.782 695.652h66.782v-111.304H66.782zM66.782 183.652h66.782v-111.304H66.782zM133.566 72.348h66.782v-66.782H133.566zM200.348 5.566h111.304v-66.782h-111.304zM311.652 896h400.696v-66.782H311.652zM311.652-61.218h400.696V-128H311.652zM0 584.348h66.782v-400.696H0zM712.348 829.218h111.304v-66.782h-111.304zM823.652 762.434h66.782v-66.782h-66.782zM890.434 695.652h66.782v-111.304h-66.782zM890.434 183.652h66.782v-111.304h-66.782zM823.652 72.348h66.782v-66.782h-66.782zM712.348 5.566h111.304v-66.782h-111.304zM957.218 584.348H1024v-400.696h-66.782zM333.914 205.914h356.174v-66.782H333.914zM133.566 428.522h267.13v-66.782H133.566zM623.304 428.522h267.13v-66.782H623.304z"  horiz-adv-x="1024" />

    
    <glyph glyph-name="-shopping-cart" unicode="&#58897;" d="M823.652 806.956h66.782v-66.782h-66.782zM890.434 873.74H1024v-66.782h-133.566zM756.87 740.174v-66.782H0V361.74h66.782v-133.566h66.784v-66.782h66.782v-200.348h66.782v-66.784h133.566v66.784h66.782v66.782h89.044v-66.782h66.782v-66.784h133.566v66.784h66.782V740.174zM133.566 673.392H0v-178.088h133.566v44.522h690.086v133.566zM0 428.522v-66.782h66.782v-66.784h66.784v133.566H66.782zM467.478 94.608h-66.782v66.784h-133.566v-66.784h-66.782v-133.564h66.782v-66.784h133.566v66.784h66.782zM823.652 94.608h-66.782v66.784h-133.566v-66.784h-66.782v-133.564h66.782v-66.784h133.566v66.784h66.782zM400.696 94.608v66.784H200.348v-200.348h66.782v133.564zM267.13-38.956h133.566v-66.782h-133.566zM556.522 94.608h-155.826v-133.564h66.782v66.782h89.044v-66.782h66.782v133.564zM623.304-38.956h133.566v-66.782h-133.566zM823.652 806.956h66.782v-66.782h-66.782zM756.87 673.392H0V361.74h66.782V606.608h690.088v-445.216h-133.566v-66.784h133.566v-133.564h66.782V740.174h-66.782zM890.434 873.74H1024v-66.782h-133.566zM133.566 228.174h66.782v-66.782H133.566zM66.782 361.74h66.782v-133.566H66.782z"  horiz-adv-x="1024" />

    
    <glyph glyph-name="-shy" unicode="&#58898;" d="M957.218 584.348v111.304h-66.784V762.434h-66.782V829.218h-111.304V896H311.652v-66.782h-111.304v-66.784H133.566v-66.782H66.782v-111.304l-66.766-0.006v-400.696h66.766v-111.298h66.784V5.566h66.782V-61.218h111.304V-128h400.696v66.782h111.304V5.566h66.782V72.348h66.784v111.298h22.274v0.006H1024V584.348zM957.218 584.348v111.304h-66.784V762.434h-66.782V829.218h-111.304V896H311.652v-66.782h-111.304v-66.784H133.566v-66.782H66.782v-111.304H0v-66.782h133.566v111.304h66.782v66.782h66.782V762.434h489.74v-66.782h66.782v-66.782h66.782v-111.304H1024v66.782zM200.348 829.218h111.304v-66.782h-111.304zM133.566 762.434h66.782v-66.782H133.566zM66.782 695.652h66.782v-111.304H66.782zM66.782 183.652h66.782v-111.304H66.782zM133.566 72.348h66.782v-66.782H133.566zM200.348 5.566h111.304v-66.782h-111.304zM311.652 896h400.696v-66.782H311.652zM311.652-61.218h400.696V-128H311.652zM0 584.348h66.782v-400.696H0zM712.348 829.218h111.304v-66.782h-111.304zM823.652 762.434h66.782v-66.782h-66.782zM890.434 695.652h66.782v-111.304h-66.782zM890.434 183.652h66.782v-111.304h-66.782zM823.652 72.348h66.782v-66.782h-66.782zM712.348 5.566h111.304v-66.782h-111.304zM957.218 584.348H1024v-400.696h-66.782zM333.914 205.914h356.174v-66.782H333.914zM311.652 428.522h66.782v-66.782h-66.782zM244.87 495.304h66.782v-66.782h-66.782zM244.87 361.74h66.782v-66.782h-66.782zM178.086 562.086h66.782v-66.782H178.086zM178.086 294.956h66.782v-66.782H178.086zM623.304 428.522h66.782v-66.782h-66.782zM690.086 495.304h66.782v-66.782h-66.782zM690.086 361.74h66.782v-66.782h-66.782zM756.87 562.086h66.782v-66.782h-66.782zM756.87 294.956h66.782v-66.782h-66.782z"  horiz-adv-x="1024" />

    
    <glyph glyph-name="-battery-" unicode="&#58899;" d="M823.652 584.348v66.782H0v-534.26h823.652v66.782H1024V584.348zM66.782 584.348h756.87v66.782H0v-534.26h823.652v66.782H66.782zM957.218 584.348h-133.566v-66.782h133.566v-267.132h-133.566v-66.782H1024V584.348zM756.858 517.56v0.006h-66.782v-0.006H200.348v0.006H133.566v-200.348h-0.004v-66.784h0.008v-0.004h623.3l-0.004 267.13z"  horiz-adv-x="1024" />

    
    <glyph glyph-name="-shopping-basket" unicode="&#58900;" d="M1024 539.826H0v-333.912h66.782v-133.566h66.784v-133.566h66.782V-128h623.304v66.782h66.782v133.566h66.784v133.566H1024zM133.566 539.826H0v-200.348h133.566V406.26H1024v133.566zM0 272.696v-66.782h66.782v-66.784h66.784v133.566H66.782zM200.348-61.218h623.304V-128H200.348zM66.782 205.914h66.782v-133.566H66.782zM133.566 72.348h66.782v-133.566H133.566zM890.434 205.914h66.782v-133.566h-66.782zM823.652 72.348h66.782v-133.566h-66.782zM957.218 539.826v155.826h-66.784v-155.826H133.566v155.826H66.782v-155.826H0v-333.912h66.782V473.044h890.436v-267.13H1024V539.826zM200.348 829.218h66.782v-66.782h-66.782zM133.566 762.434h66.782v-66.782H133.566zM267.13 896h489.74v-66.782h-489.74zM756.87 829.218h66.782v-66.782h-66.782zM823.652 762.434h66.782v-66.782h-66.782zM467.478 339.478h66.782v-333.914h-66.782zM222.608 317.218h66.782v-133.566h-66.782zM289.392 183.652h66.782v-133.566h-66.782zM712.348 317.218h66.782v-133.566h-66.782zM645.566 183.652h66.782v-133.566h-66.782z"  horiz-adv-x="1024" />

    
    <glyph glyph-name="-zoom" unicode="&#58901;" d="M957.218 695.652V762.434h-66.784V829.218h-66.782V896H400.696v-66.782h-66.782v-66.784h-66.784v-66.782h-66.782v-489.738H133.566v-66.784H66.782v-66.782H0v-133.566h66.782V-128h133.566v66.782h66.782v66.784h66.784v66.782h489.738v66.782h66.782v66.784h66.784v66.782H1024V695.652zM400.696 896v-66.782h-66.782v-66.784h-66.784v-66.782h-66.782v-66.782h133.566v66.782h66.782V762.434h66.782V896zM200.348 272.696v-66.782H133.566v-66.784H66.782v-66.782H0v-66.782h133.566v66.782h66.782v66.782h66.782v133.566zM0 72.348h66.782v-133.566H0zM267.13 272.696V695.652h-66.782v-489.738h66.782zM133.566 205.914h66.782v-66.782H133.566zM66.782 139.13h66.782v-66.782H66.782zM66.782-61.218h133.566V-128H66.782zM333.914 139.13v-66.782h489.738v66.782H400.696zM267.13 72.348h66.782v-66.782h-66.782zM200.348 5.566h66.782v-66.782h-66.782zM957.218 695.652H1024v-422.956h-66.782zM400.696 896h422.956v-66.782H400.696zM267.13 762.434h66.782v-66.782h-66.782zM333.914 829.218h66.782v-66.782h-66.782zM823.652 829.218h66.782v-66.782h-66.782zM890.434 762.434h66.782v-66.782h-66.782zM890.434 272.696h66.782v-66.782h-66.782zM823.652 205.914h66.782v-66.782h-66.782zM890.434 628.87h-66.782v66.782h-66.782V762.434H467.478v-66.782h-66.782v-66.782h-66.782v-289.392h66.782v-66.782h66.782v-66.782h289.392v66.782h66.782v66.782h66.782zM467.478 762.434v-66.782h-66.782v-66.782h-66.782v-66.784h133.564v66.784h66.782V762.434zM333.914 628.87h66.782v-289.392h-66.782zM467.478 762.434h289.392v-66.782H467.478zM467.478 272.696h289.392v-66.782H467.478zM823.652 628.87h66.782v-289.392h-66.782zM400.696 695.652h66.782v-66.782h-66.782zM400.696 339.478h66.782v-66.782h-66.782zM756.87 695.652h66.782v-66.782h-66.782zM756.87 339.478h66.782v-66.782h-66.782z"  horiz-adv-x="1024" />

    
    <glyph glyph-name="-happy" unicode="&#58902;" d="M957.218 584.348v111.304h-66.784V762.434h-66.782V829.218h-111.304V896H311.652v-66.782h-111.304v-66.784H133.566v-66.782H66.782v-111.304l-66.766-0.006v-400.696h66.766v-111.298h66.784V5.566h66.782V-61.218h111.304V-128h400.696v66.782h111.304V5.566h66.782V72.348h66.784v111.298h22.274v0.006H1024V584.348zM957.218 584.348v111.304h-66.784V762.434h-66.782V829.218h-111.304V896H311.652v-66.782h-111.304v-66.784H133.566v-66.782H66.782v-111.304H0v-66.782h133.566v111.304h66.782v66.782h66.782V762.434h489.74v-66.782h66.782v-66.782h66.782v-111.304H1024v66.782zM200.348 829.218h111.304v-66.782h-111.304zM133.566 762.434h66.782v-66.782H133.566zM66.782 695.652h66.782v-111.304H66.782zM66.782 183.652h66.782v-111.304H66.782zM133.566 72.348h66.782v-66.782H133.566zM200.348 5.566h111.304v-66.782h-111.304zM311.652 896h400.696v-66.782H311.652zM311.652-61.218h400.696V-128H311.652zM0 584.348h66.782v-400.696H0zM712.348 829.218h111.304v-66.782h-111.304zM823.652 762.434h66.782v-66.782h-66.782zM890.434 695.652h66.782v-111.304h-66.782zM890.434 183.652h66.782v-111.304h-66.782zM823.652 72.348h66.782v-66.782h-66.782zM712.348 5.566h111.304v-66.782h-111.304zM957.218 584.348H1024v-400.696h-66.782zM690.086 72.348v66.782h66.784V339.478h-489.74v-200.348h66.784v-66.782h66.782v-66.782h222.608v66.782zM155.826 539.826h66.782v-133.566H155.826zM356.174 539.826h66.782v-133.566h-66.782zM222.608 606.608h133.566v-66.782h-133.566zM601.044 539.826h66.782v-133.566h-66.782zM801.392 539.826h66.782v-133.566h-66.782zM667.826 606.608h133.566v-66.782h-133.566zM400.696 72.348h222.608v-66.782H400.696zM690.086 339.478H267.13v-200.348h66.784v133.566h356.172v-133.566h66.784V339.478zM333.914 139.13h66.782v-66.782h-66.782zM623.304 139.13h66.782v-66.782h-66.782z"  horiz-adv-x="1024" />

    
    <glyph glyph-name="-users-" unicode="&#58903;" d="M868.174 27.826v66.782h-66.782v66.784h-66.784v133.564h66.784V361.74h66.782V695.652h-66.782V762.434H734.608V829.218h-66.782V896H356.174v-66.782h-66.782v-66.784h-66.784v-66.782H155.826V361.74h66.782v-66.784h66.784v-133.564h-66.784v-66.784H155.826v-66.782H89.044V-128h845.912v155.826zM289.392 228.174v-66.782h-66.784v-66.784H155.826v-66.782H89.044V-128h133.564v155.826h66.784v66.782h66.782v133.566zM155.826 428.522v-66.782h66.782v-66.784h66.784v133.566h-66.784zM801.392 695.652V762.434h-66.784V829.218h-66.782V896H356.174v-66.782h-66.782v-66.784h-66.784v-66.782H155.826v-200.348h133.566V695.652h66.782V762.434h311.652v-66.782h66.782v-66.782h133.566v66.782zM155.826 695.652h66.782v-333.914H155.826zM801.392 695.652h66.782v-333.914h-66.782zM356.174 896h311.652v-66.782H356.174zM222.608 762.434h66.782v-66.782h-66.782zM289.392 829.218h66.782v-66.782h-66.782zM667.826 829.218h66.782v-66.782h-66.782zM734.608 762.434h66.782v-66.782h-66.782zM222.608 361.74h66.782v-66.782h-66.782zM734.608 361.74h66.782v-66.782h-66.782zM667.826 228.174h-66.782v-66.782h133.564v133.564h-66.782zM155.826 94.608h66.782v-66.782H155.826zM801.392 94.608h66.782v-66.782h-66.782zM868.174 27.826v-89.044H155.826v89.044H89.044V-128h845.912v155.826zM222.608 161.392h66.782v-66.782h-66.782zM734.608 161.392h66.782v-66.782h-66.782zM422.956 161.392v66.782h-66.782v66.782h-66.782v-133.564h66.782z"  horiz-adv-x="1024" />

    
    <glyph glyph-name="-battery-1" unicode="&#58904;" d="M823.652 584.348v66.782H0v-534.26h823.652v66.782H1024V584.348zM66.782 584.348h756.87v66.782H0v-534.26h823.652v66.782H66.782zM957.218 584.348h-133.566v-66.782h133.566v-267.132h-133.566v-66.782H1024V584.348zM623.3 517.566v0.002h-66.782v-0.002H200.348v0.002H133.566v-267.13h0.006v-0.004h489.732V517.566z"  horiz-adv-x="1024" />

    
    <glyph glyph-name="-low-battery" unicode="&#58905;" d="M823.652 584.348v66.782H0v-534.26h823.652v66.782H1024V584.348zM133.566 517.566h66.782v-267.13H133.566zM66.782 584.348h756.87v66.782H0v-534.26h823.652v66.782H66.782zM957.218 584.348h-133.566v-66.782h133.566v-267.132h-133.566v-66.782H1024V584.348z"  horiz-adv-x="1024" />

    
    <glyph glyph-name="-battery-2" unicode="&#58906;" d="M823.652 584.348v66.782H0v-534.26h823.652v66.782H1024V584.348zM66.782 584.348h756.87v66.782H0v-534.26h823.652v66.782H66.782zM957.218 584.348h-133.566v-66.782h133.566v-267.132h-133.566v-66.782H1024V584.348zM511.994 517.562v0.004h-66.784v-0.004H200.342v0.004H133.558v-267.132h0.008v-0.002H512V517.562z"  horiz-adv-x="1024" />

    
    <glyph glyph-name="-battery" unicode="&#58907;" d="M823.652 584.348v66.782H0v-534.26h823.652v66.782H1024V584.348zM66.782 584.348h756.87v66.782H0v-534.26h823.652v66.782H66.782zM957.218 584.348h-133.566v-66.782h133.566v-267.132h-133.566v-66.782H1024V584.348zM400.688 517.566H133.558v-267.132h267.138V517.566z"  horiz-adv-x="1024" />

    
    <glyph glyph-name="-users" unicode="&#58908;" d="M601.044 150.26v66.784H534.26v133.564H601.044V617.74H534.26v66.782h-66.782V751.304H200.348v-66.782H133.566v-66.782H66.782v-267.132h66.784v-133.564H66.782v-66.784H0v-200.346h667.826V150.26zM200.348 751.304v-66.782H133.566v-66.782H66.782v-66.784h133.566V617.74h66.782V751.304zM133.566 217.044H66.782v-66.784H0v-66.782h133.566V150.26h66.782v133.566H133.566zM957.218 217.044v66.782h-66.784v133.566h66.784V684.522h-66.784V751.304h-66.782V818.086H556.522v-66.782h66.782v-66.782h66.782v-467.478h44.522V16.696H1024V217.044zM66.782 617.74h66.782v-267.13H66.782zM534.26 617.74h66.782v-267.13H534.26zM200.348 751.304h267.13v-66.782H200.348zM133.566 684.522h66.782v-66.782H133.566zM467.478 684.522h66.782v-66.782h-66.782zM467.478 283.826h-66.782v-66.782h133.564v133.564h-66.782zM66.782 217.044h66.782v-66.782H66.782zM534.26 217.044h66.782v-66.782H534.26zM601.044 150.26v-133.564H66.782V150.26H0v-200.346h667.826V150.26zM267.13 217.044v66.782h-66.782v66.782H133.566v-133.564h66.782zM890.434 684.522h66.782v-267.13h-66.782zM556.522 818.086h267.13v-66.782H556.522zM823.652 751.304h66.782v-66.782h-66.782zM890.434 417.392h-66.782v-66.784h-66.782v-66.782h133.564v66.782zM890.434 283.826h66.782v-66.782h-66.782zM957.218 217.044v-133.566H734.608v-66.782H1024V217.044z"  horiz-adv-x="1024" />

    
    <glyph glyph-name="-speaker-" unicode="&#58909;" d="M823.652 539.826h66.782v-311.652h-66.782zM690.086 829.218V896h-133.564v-66.782H489.74v-66.784h-66.784v-66.782h-66.782v-66.782h-155.826v-66.784H133.566v-356.172h66.782v-66.784h155.826v-66.782h66.782v-66.782h66.784v-66.784h66.782V-128h133.564v66.782h66.784V829.218zM690.086 829.218V896h-133.564v-66.782H489.74v-66.784h-66.784v-66.782h-66.782v-66.782h-155.826v-66.784H133.566v-66.782h222.608v66.782h66.782v66.784h66.784v66.782h66.782V762.434h200.348V829.218zM133.566 562.086h66.782v-356.174H133.566zM690.086 829.218h66.782v-890.434h-66.782zM200.348 628.87h155.826v-66.782h-155.826zM200.348 205.914h155.826v-66.782h-155.826zM356.174 695.652h66.782v-66.782h-66.782zM422.956 762.434h66.782v-66.782h-66.782zM489.74 829.218h66.782v-66.782H489.74zM556.522 896h133.566v-66.782h-133.566zM356.174 139.13h66.782v-66.782h-66.782zM422.956 72.348h66.782v-66.782h-66.782zM489.74 5.566h66.782v-66.782H489.74zM556.522-61.218h133.566V-128h-133.566z"  horiz-adv-x="1024" />

    
    <glyph glyph-name="-mute" unicode="&#58910;" d="M690.086 294.956h66.782v-66.782h-66.782zM756.87 361.74h66.782v-66.782h-66.782zM823.652 428.522h66.782v-66.782h-66.782zM890.434 495.304h66.782v-66.782h-66.782zM957.218 562.086H1024v-66.782h-66.782zM957.218 294.956H1024v-66.782h-66.782zM890.434 361.74h66.782v-66.782h-66.782zM823.652 428.522h66.782v-66.782h-66.782zM756.87 495.304h66.782v-66.782h-66.782zM690.086 562.086h66.782v-66.782h-66.782zM556.522 829.218V896h-133.566v-66.782h-66.782v-66.784h-66.782v-66.782h-66.784v-66.782H66.782v-66.784H0v-356.172h66.782v-66.784h155.826v-66.782h66.784v-66.782h66.782v-66.784h66.782V-128h133.566v66.782h66.782V829.218zM556.522 829.218V896h-133.566v-66.782h-66.782v-66.784h-66.782v-66.782h-66.784v-66.782H66.782v-66.784H0v-66.782h222.608v66.782h66.784v66.784h66.782v66.782h66.782V762.434h200.348V829.218zM0 562.086h66.782v-356.174H0zM556.522 829.218h66.782v-890.434h-66.782zM66.782 628.87h155.826v-66.782H66.782zM66.782 205.914h155.826v-66.782H66.782zM222.608 695.652h66.782v-66.782h-66.782zM289.392 762.434h66.782v-66.782h-66.782zM356.174 829.218h66.782v-66.782h-66.782zM422.956 896h133.566v-66.782h-133.566zM222.608 139.13h66.782v-66.782h-66.782zM289.392 72.348h66.782v-66.782h-66.782zM356.174 5.566h66.782v-66.782h-66.782zM422.956-61.218h133.566V-128h-133.566z"  horiz-adv-x="1024" />

    
    <glyph glyph-name="-padlock" unicode="&#58911;" d="M155.826 495.304h712.348V-128H155.826zM868.174 495.304H155.826V-128h111.304V384h601.044zM378.434 896h267.13v-66.782H378.434zM779.13 495.304V762.434h-66.782v-267.13H311.652V762.434h-66.782v-267.13H155.826V-128h712.348V495.304h-89.044z m22.262-556.522H222.608v489.74h578.782v-489.74zM311.652 829.218h66.782v-66.782h-66.782zM645.566 829.218h66.782v-66.782h-66.782zM489.74 50.086h44.52v111.306h44.522v133.564h-133.564v-133.564h44.522z"  horiz-adv-x="1024" />

    
    <glyph glyph-name="-bell" unicode="&#58912;" d="M890.434 139.13v66.784h-44.52V695.652h-66.784V762.434h-66.782V829.218h-66.782V896H378.434v-66.782h-66.782v-66.784h-66.782v-66.782H178.086v-489.738h-44.52v-66.784H66.782v-133.564h267.132v-66.784h66.782V-128h222.608v66.782h66.782v66.784h267.132v133.564zM890.434 139.13v66.784h-44.52v66.782H178.086v-66.782h-44.52v-66.784H66.782v-133.564h890.436v133.564zM378.434 851.478v-22.26h-66.782V762.434h-66.782v-66.782H178.086v-489.738h111.306V695.652h22.26V717.914h44.522v44.52h22.26V784.696h44.522V851.478zM133.566 161.392v-22.262H66.782v-133.564h111.304V205.914h-44.52zM378.434 27.826h-44.52v-89.044H400.696V-128h44.522v155.826zM244.87 762.434h66.782v-66.782h-66.782zM311.652 829.218h66.782v-66.782h-66.782zM890.434 139.13v66.784h-44.52V695.652h-66.784v-489.738h-534.26V695.652H178.086v-489.738h-44.52v-66.784zM400.696-61.218h222.608V-128H400.696zM378.434 896h267.13v-66.782H378.434zM712.348 762.434h66.782v-66.782h-66.782zM645.566 829.218h66.782v-66.782h-66.782zM890.434 139.13v-66.782H133.566v66.782H66.782v-133.564h267.132v-66.784h66.782v66.784h222.608v-66.784h66.782v66.784h267.132v133.564z"  horiz-adv-x="1024" />

    
    <glyph glyph-name="-speaker-1" unicode="&#58913;" d="M957.218 740.174H1024v-712.348h-66.782zM823.652 651.13h66.782v-534.26h-66.782zM690.086 539.826h66.782v-311.652h-66.782zM556.522 829.218V896h-133.566v-66.782h-66.782v-66.784h-66.782v-66.782h-66.784v-66.782H66.782v-66.784H0v-356.172h66.782v-66.784h155.826v-66.782h66.784v-66.782h66.782v-66.784h66.782V-128h133.566v66.782h66.782V829.218zM556.522 829.218V896h-133.566v-66.782h-66.782v-66.784h-66.782v-66.782h-66.784v-66.782H66.782v-66.784H0v-66.782h222.608v66.782h66.784v66.784h66.782v66.782h66.782V762.434h200.348V829.218zM0 562.086h66.782v-356.174H0zM556.522 829.218h66.782v-890.434h-66.782zM66.782 628.87h155.826v-66.782H66.782zM66.782 205.914h155.826v-66.782H66.782zM222.608 695.652h66.782v-66.782h-66.782zM289.392 762.434h66.782v-66.782h-66.782zM356.174 829.218h66.782v-66.782h-66.782zM422.956 896h133.566v-66.782h-133.566zM222.608 139.13h66.782v-66.782h-66.782zM289.392 72.348h66.782v-66.782h-66.782zM356.174 5.566h66.782v-66.782h-66.782zM422.956-61.218h133.566V-128h-133.566z"  horiz-adv-x="1024" />

    
    <glyph glyph-name="-folder" unicode="&#58914;" d="M957.218 762.434V829.218H356.174v-66.784h-66.782v-66.782H0v-756.87h1024V762.434zM1024 695.652H0v-756.87h133.566V562.086H1024zM1024 762.434h-66.782v-66.782H356.174V762.434h-66.782v-66.782H0v-756.868h1024V762.434zM66.782 628.87h890.434v-623.304H66.782V628.87zM356.174 829.218h601.044v-66.782H356.174z"  horiz-adv-x="1024" />

    
    <glyph glyph-name="-file" unicode="&#58915;" d="M890.434 896H267.132v-66.782h-66.782v-66.782H133.566V-128h756.868V896zM200.348-61.218M333.914 896h556.522v-133.566H333.914zM133.566 695.652h133.566V-128H133.566zM890.434 829.218V896H267.132v-66.782h66.782v-133.566h-133.566V762.434H133.566V-128h756.868V829.218z m-66.782-890.436H200.348V628.87h200.348V829.218h422.956v-890.436zM200.348 829.218h66.782v-66.782h-66.782z"  horiz-adv-x="1024" />

    
    <glyph glyph-name="-zoom-out" unicode="&#58916;" d="M957.218 695.652V762.434h-66.784V829.218h-66.782V896H400.696v-66.782h-66.782v-66.784h-66.784v-66.782h-66.782v-489.738H133.566v-66.784H66.782v-66.782H0v-133.566h66.782V-128h133.566v66.782h66.782v66.784h66.784v66.782h489.738v66.782h66.782v66.784h66.784v66.782H1024V695.652zM400.696 896v-66.782h-66.782v-66.784h-66.784v-66.782h-66.782v-66.782h133.566v66.782h66.782V762.434h66.782V896zM200.348 272.696v-66.782H133.566v-66.784H66.782v-66.782H0v-66.782h133.566v66.782h66.782v66.782h66.782v133.566zM0 72.348h66.782v-133.566H0zM267.13 272.696V695.652h-66.782v-489.738h66.782zM133.566 205.914h66.782v-66.782H133.566zM66.782 139.13h66.782v-66.782H66.782zM66.782-61.218h133.566V-128H66.782zM333.914 139.13v-66.782h489.738v66.782H400.696zM267.13 72.348h66.782v-66.782h-66.782zM200.348 5.566h66.782v-66.782h-66.782zM957.218 695.652H1024v-422.956h-66.782zM400.696 896h422.956v-66.782H400.696zM267.13 762.434h66.782v-66.782h-66.782zM333.914 829.218h66.782v-66.782h-66.782zM823.652 829.218h66.782v-66.782h-66.782zM890.434 762.434h66.782v-66.782h-66.782zM890.434 272.696h66.782v-66.782h-66.782zM823.652 205.914h66.782v-66.782h-66.782zM957.218 695.652V762.434h-66.784V829.218h-66.782V896H400.696v-66.782h-66.782v-66.784h-66.784v-66.782h-66.782v-489.738H133.566v-66.784H66.782v-66.782H0v-133.566h66.782V-128h133.566v66.782h66.782v66.784h66.784v66.782h489.738v66.782h66.782v66.784h66.784v66.782H1024V695.652zM400.696 896v-66.782h-66.782v-66.784h-66.784v-66.782h-66.782v-66.782h133.566v66.782h66.782V762.434h66.782V896zM200.348 272.696v-66.782H133.566v-66.784H66.782v-66.782H0v-66.782h133.566v66.782h66.782v66.782h66.782v133.566zM0 72.348h66.782v-133.566H0zM267.13 272.696V695.652h-66.782v-489.738h66.782zM133.566 205.914h66.782v-66.782H133.566zM66.782 139.13h66.782v-66.782H66.782zM66.782-61.218h133.566V-128H66.782zM333.914 139.13v-66.782h489.738v66.782H400.696zM267.13 72.348h66.782v-66.782h-66.782zM200.348 5.566h66.782v-66.782h-66.782zM957.218 695.652H1024v-422.956h-66.782zM400.696 896h422.956v-66.782H400.696zM267.13 762.434h66.782v-66.782h-66.782zM333.914 829.218h66.782v-66.782h-66.782zM823.652 829.218h66.782v-66.782h-66.782zM890.434 762.434h66.782v-66.782h-66.782zM890.434 272.696h66.782v-66.782h-66.782zM823.652 205.914h66.782v-66.782h-66.782zM378.434 539.826h467.478v-133.566H378.434z"  horiz-adv-x="1024" />

    
    <glyph glyph-name="-menu-" unicode="&#58917;" d="M0 896h1024v-267.13H0zM0 517.566h1024v-267.13H0zM0 139.13h1024V-128H0zM957.218 896H0v-267.13h1024V896h-66.782z m0-200.348H66.782V829.218h890.434v-133.566zM66.782 517.566H0v-267.13h1024V517.566H66.782z m890.436-200.348H66.782v133.566h890.434v-133.566zM66.782 139.13H0V-128h1024V139.13H66.782z m890.436-200.348H66.782v133.566h890.434v-133.566z"  horiz-adv-x="1024" />

    
    <glyph glyph-name="-menu" unicode="&#58918;" d="M0 896h467.478v-467.478H0zM556.522 896H1024v-467.478H556.522zM0 339.478h467.478V-128H0zM556.522 339.478H1024V-128H556.522zM66.782 896H0V428.522H467.478V896H66.782z m333.914-400.696H66.782V829.218h333.914v-333.914zM957.218 896H556.522V428.522H1024V896h-66.782z m0-400.696H623.304V829.218h333.914v-333.914zM66.782 339.478H0V-128H467.478V339.478H66.782z m333.914-400.696H66.782V272.696h333.914v-333.914zM623.304 339.478h-66.782V-128H1024V339.478H623.304z m333.914-400.696H623.304V272.696h333.914v-333.914z"  horiz-adv-x="1024" />

    
    <glyph glyph-name="-bar-chart" unicode="&#58919;" d="M133.566 294.956h222.608v-289.392H133.566zM445.218 584.348h222.608v-578.782H445.218zM756.87 829.218h222.608v-823.652H756.87zM66.782-61.218V896H0v-1024h1024v66.782zM823.654 5.566h155.824V829.218h-0.004v0.002H756.87v-66.782h0.002v-690.09h-0.002v-66.782H823.654z m0 756.872h89.042v-690.09h-89.042V762.438zM512.002 5.566h155.824v578.78h-0.004v0.002H445.218v-66.782h0.002v-445.218h-0.002v-66.782H512.002z m0 512h89.042v-445.218h-89.042V517.566zM200.35 5.566h155.824V294.954h-0.004v0.002H133.566v-66.782h0.002v-155.826h-0.002v-66.782H200.35z m0 222.608h89.042v-155.826h-89.042v155.826z"  horiz-adv-x="1024" />

    
    <glyph glyph-name="-chat-" unicode="&#58920;" d="M957.218 773.566V840.348H66.782v-66.782H0V128h66.782v-66.782h333.914v-133.566h133.564v66.782h66.784v66.784h356.174V128H1024V773.566zM957.218 773.566V840.348H66.782v-66.782H0V128h66.782v-66.782h66.784V706.782H1024V773.566zM534.26 61.218h66.782v-66.782H534.26zM0 773.566h66.782V128H0zM957.218 773.566H1024V128h-66.782zM467.478 61.218V128H66.782v-66.782h333.914v-133.566h133.564v66.782h-66.782zM66.782 840.348h890.434v-66.782H66.782zM601.044 128h356.174v-66.782H601.044zM200.348 640h623.304v-66.782H200.348zM200.348 484.174h623.304v-66.782H200.348zM200.348 328.348h623.304v-66.782H200.348z"  horiz-adv-x="1024" />

    
    <glyph glyph-name="-cancel" unicode="&#58921;" d="M957.218 584.348v111.304h-66.784V762.434h-66.782V829.218h-111.304V896H311.652v-66.782h-111.304v-66.784H133.566v-66.782H66.782v-111.304l-66.766-0.006v-400.696h66.766v-111.298h66.784V5.566h66.782V-61.218h111.304V-128h400.696v66.782h111.304V5.566h66.782V72.348h66.784v111.298h22.274v0.006H1024V584.348zM311.652 829.218h-111.304v-66.784H133.566v-66.782H66.782v-111.304H0V384h133.566V584.348h66.782v111.304h111.304V762.434H512V896H311.652zM578.782 896v-133.566h66.784V896zM0 317.218v-66.784h133.566v66.784H66.782zM200.348 829.218h111.304v-66.782h-111.304zM133.566 762.434h66.782v-66.782H133.566zM66.782 695.652h66.782v-111.304H66.782zM66.782 183.652h66.782v-111.304H66.782zM133.566 72.348h66.782v-66.782H133.566zM200.348 5.566h111.304v-66.782h-111.304zM311.652 896h400.696v-66.782H311.652zM311.652-61.218h400.696V-128H311.652zM0 584.348h66.782v-400.696H0zM712.348 829.218h111.304v-66.782h-111.304zM823.652 762.434h66.782v-66.782h-66.782zM890.434 695.652h66.782v-111.304h-66.782zM890.434 183.652h66.782v-111.304h-66.782zM823.652 72.348h66.782v-66.782h-66.782zM712.348 5.566h111.304v-66.782h-111.304zM957.218 584.348H1024v-400.696h-66.782zM623.304 651.13v-66.782h-66.782v-66.782h-89.044v66.782h-66.782v66.782h-155.826v-89.044h66.782v-66.782h66.782v-66.782h66.784v-66.782h-66.784v-66.784h-66.782v-66.782h-66.782V139.13h155.826v66.784h66.782v66.782h89.044v-66.782h66.782v-66.784h155.826v89.044h-66.782v66.782h-66.782V361.74h-66.784v66.782h66.784v66.782h66.782v66.782h66.782v89.044z"  horiz-adv-x="1024" />

    
    <glyph glyph-name="-check" unicode="&#58922;" d="M957.218 584.348v111.304h-66.784V762.434h-66.782V829.218h-111.304V896H311.652v-66.782h-111.304v-66.784H133.566v-66.782H66.782v-111.304l-66.766-0.006v-400.696h66.766v-111.298h66.784V5.566h66.782V-61.218h111.304V-128h400.696v66.782h111.304V5.566h66.782V72.348h66.784v111.298h22.274v0.006H1024V584.348zM311.652 829.218h-111.304v-66.784H133.566v-66.782H66.782v-111.304H0V384h133.566V584.348h66.782v111.304h111.304V762.434H512V896H311.652zM578.782 896v-133.566h66.784V896zM0 317.218v-66.784h133.566v66.784H66.782zM200.348 829.218h111.304v-66.782h-111.304zM133.566 762.434h66.782v-66.782H133.566zM66.782 695.652h66.782v-111.304H66.782zM66.782 183.652h66.782v-111.304H66.782zM133.566 72.348h66.782v-66.782H133.566zM200.348 5.566h111.304v-66.782h-111.304zM311.652 896h400.696v-66.782H311.652zM311.652-61.218h400.696V-128H311.652zM0 584.348h66.782v-400.696H0zM712.348 829.218h111.304v-66.782h-111.304zM823.652 762.434h66.782v-66.782h-66.782zM890.434 695.652h66.782v-111.304h-66.782zM890.434 183.652h66.782v-111.304h-66.782zM823.652 72.348h66.782v-66.782h-66.782zM712.348 5.566h111.304v-66.782h-111.304zM957.218 584.348H1024v-400.696h-66.782zM690.086 628.87v-66.784h-66.782v-66.782h-66.782v-66.782H489.74v-66.782h-66.784v-66.784h-66.782V361.74h-66.782v66.782h-89.044v-155.826h66.782v-66.782h66.784v-66.784h111.304v66.784H512v66.782h66.782v66.782h66.784V406.26h66.782v66.784h66.782v155.826z"  horiz-adv-x="1024" />

    
    <glyph glyph-name="-clock" unicode="&#58923;" d="M957.218 584.348v111.304h-66.784V762.434h-66.782V829.218h-111.304V896H311.652v-66.782h-111.304v-66.784H133.566v-66.782H66.782v-111.304l-66.766-0.006v-400.696h66.766v-111.298h66.784V5.566h66.782V-61.218h111.304V-128h400.696v66.782h111.304V5.566h66.782V72.348h66.784v111.298h22.274v0.006H1024V584.348zM890.434 584.348h-66.782v111.31h-111.304V762.442H311.652v-66.784h-111.304v-111.31H133.566v-400.696h66.782v-111.304h111.304V5.566h400.696V72.348h111.304v111.304h66.782zM200.348 829.218h111.304v-66.782h-111.304zM133.566 762.434h66.782v-66.782H133.566zM66.782 695.652h66.782v-111.304H66.782zM66.782 183.652h66.782v-111.304H66.782zM133.566 72.348h66.782v-66.782H133.566zM200.348 5.566h111.304v-66.782h-111.304zM311.652 896h400.696v-66.782H311.652zM311.652-61.218h400.696V-128H311.652zM0 584.348h66.782v-400.696H0zM712.348 829.218h111.304v-66.782h-111.304zM823.652 762.434h66.782v-66.782h-66.782zM890.434 695.652h66.782v-111.304h-66.782zM890.434 183.652h66.782v-111.304h-66.782zM823.652 72.348h66.782v-66.782h-66.782zM712.348 5.566h111.304v-66.782h-111.304zM957.218 584.348H1024v-400.696h-66.782zM556.522 740.174H489.74v-311.652H289.392v-66.782h267.13v44.52z"  horiz-adv-x="1024" />

    
    <glyph glyph-name="-chat" unicode="&#58924;" d="M0 840.348v-779.13h400.696v-133.566h133.564v66.782h66.784v66.784H1024V840.348zM1024 840.348H0v-779.13h111.304V729.044H1024zM690.086 640h-133.564v-66.782H489.74V640h-133.566v-66.782h-66.782v-200.348h66.782v-66.784h133.566v-66.782h66.782v66.782h133.564v66.784h66.784V573.218h-66.784zM534.26 61.218h66.782v-66.782H534.26zM0 840.348v-779.13h400.696v-133.566h133.564v66.782h-66.782V128H66.782V773.566h890.436V128H601.044v-66.782H1024V840.348z"  horiz-adv-x="1024" />

    
    <glyph glyph-name="-zoom-in" unicode="&#58925;" d="M957.218 695.652V762.434h-66.784V829.218h-66.782V896H400.696v-66.782h-66.782v-66.784h-66.784v-66.782h-66.782v-489.738H133.566v-66.784H66.782v-66.782H0v-133.566h66.782V-128h133.566v66.782h66.782v66.784h66.784v66.782h489.738v66.782h66.782v66.784h66.784v66.782H1024V695.652zM400.696 896v-66.782h-66.782v-66.784h-66.784v-66.782h-66.782v-66.782h133.566v66.782h66.782V762.434h66.782V896zM200.348 272.696v-66.782H133.566v-66.784H66.782v-66.782H0v-66.782h133.566v66.782h66.782v66.782h66.782v133.566zM0 72.348h66.782v-133.566H0zM267.13 272.696V695.652h-66.782v-489.738h66.782zM133.566 205.914h66.782v-66.782H133.566zM66.782 139.13h66.782v-66.782H66.782zM66.782-61.218h133.566V-128H66.782zM333.914 139.13v-66.782h489.738v66.782H400.696zM267.13 72.348h66.782v-66.782h-66.782zM200.348 5.566h66.782v-66.782h-66.782zM957.218 695.652H1024v-422.956h-66.782zM400.696 896h422.956v-66.782H400.696zM267.13 762.434h66.782v-66.782h-66.782zM333.914 829.218h66.782v-66.782h-66.782zM823.652 829.218h66.782v-66.782h-66.782zM890.434 762.434h66.782v-66.782h-66.782zM890.434 272.696h66.782v-66.782h-66.782zM823.652 205.914h66.782v-66.782h-66.782zM678.956 539.826v155.826h-133.564v-155.826H378.434v-133.566H545.392v-155.826h133.564V406.26H845.914v133.566h-66.784z"  horiz-adv-x="1024" />

    
    <glyph glyph-name="-home" unicode="&#58926;" d="M957.218 428.522v66.782h-66.784V896H690.086v-133.566h-66.782V829.218h-66.782V896h-89.044v-66.782h-66.782v-66.784h-66.782v-66.782h-66.784v-66.782h-66.782v-66.784H133.566v-66.782H66.782v-66.782H0v-66.782h66.782V-128h311.652V272.696h267.132V-128h311.652V361.74H1024v66.782zM690.086 896v-267.13h66.784v-66.784h66.782v-66.782h66.782V896zM957.218 428.522v66.782h-66.784v66.782h-66.782v66.784h-66.782v66.782h-66.784V762.434h-66.782V829.218h-66.782V896h-89.044v-66.782h-66.782v-66.784h-66.782v-66.782h-66.784v-66.782h-66.782v-66.784H133.566v-66.782H66.782v-66.782H0v-66.782h200.348v66.782h66.782v66.782h66.784v66.782h66.782v66.784h66.782v66.782h89.044v-66.782h66.782v-66.784h66.782v-66.782h66.784v-66.782h66.782v-66.782H1024v66.782zM467.478 896h89.044v-66.782h-89.044zM333.914 762.434h66.782v-66.782h-66.782zM267.13 695.652h66.782v-66.782h-66.782zM200.348 628.87h66.782v-66.782h-66.782zM133.566 562.086h66.782v-66.782H133.566zM66.782 495.304h66.782v-66.782H66.782zM0 428.522h66.782v-66.782H0zM690.086 695.652v-66.782h66.784V829.218h66.782v-333.914h66.782V896H690.086v-133.566h-66.782v-66.782zM556.522 829.218h66.782v-66.782h-66.782zM400.696 829.218h66.782v-66.782h-66.782zM890.434-61.218h-178.086V339.478H311.652v-400.696H133.566V361.74H66.782V-128h311.652V272.696h267.132V-128h311.652V361.74h-66.784zM890.434 495.304h66.782v-66.782h-66.782zM957.218 428.522H1024v-66.782h-66.782z"  horiz-adv-x="1024" />

    
    <glyph glyph-name="-speaker" unicode="&#58927;" d="M756.87 829.218V896h-133.566v-66.782h-66.782v-66.784H489.74v-66.782h-66.784v-66.782h-155.826v-66.784h-66.782v-356.172h66.782v-66.784h155.826v-66.782h66.784v-66.782h66.782v-66.784h66.782V-128h133.566v66.782h66.782V829.218zM756.87 829.218V896h-133.566v-66.782h-66.782v-66.784H489.74v-66.782h-66.784v-66.782h-155.826v-66.784h-66.782v-66.782h222.608v66.782h66.784v66.784h66.782v66.782h66.782V762.434h200.348V829.218zM200.348 562.086h66.782v-356.174h-66.782zM756.87 829.218h66.782v-890.434h-66.782zM267.13 628.87h155.826v-66.782h-155.826zM267.13 205.914h155.826v-66.782h-155.826zM422.956 695.652h66.782v-66.782h-66.782zM489.74 762.434h66.782v-66.782H489.74zM556.522 829.218h66.782v-66.782h-66.782zM623.304 896h133.566v-66.782h-133.566zM422.956 139.13h66.782v-66.782h-66.782zM489.74 72.348h66.782v-66.782H489.74zM556.522 5.566h66.782v-66.782h-66.782zM623.304-61.218h133.566V-128h-133.566z"  horiz-adv-x="1024" />

    
    <glyph glyph-name="-speaker-2" unicode="&#58928;" d="M891.548 651.13h66.782v-534.26h-66.782zM757.982 539.826h66.782v-311.652h-66.782zM622.192 829.218V896h-133.566v-66.782h-66.782v-66.784H355.06v-66.782h-66.782v-66.782H132.452v-66.784H65.67v-356.172h66.782v-66.784h155.826v-66.782h66.782v-66.782h66.784v-66.784h66.782V-128h133.566v66.782h66.782V829.218zM622.192 829.218V896h-133.566v-66.782h-66.782v-66.784H355.06v-66.782h-66.782v-66.782H132.452v-66.784H65.67v-66.782h222.608v66.782h66.782v66.784h66.784v66.782h66.782V762.434h200.348V829.218zM65.67 562.086h66.782v-356.174H65.67zM622.192 829.218h66.782v-890.434h-66.782zM132.452 628.87h155.826v-66.782H132.452zM132.452 205.914h155.826v-66.782H132.452zM288.278 695.652h66.782v-66.782h-66.782zM355.06 762.434h66.782v-66.782H355.06zM421.844 829.218h66.782v-66.782h-66.782zM488.626 896h133.566v-66.782h-133.566zM288.278 139.13h66.782v-66.782h-66.782zM355.06 72.348h66.782v-66.782H355.06zM421.844 5.566h66.782v-66.782h-66.782zM488.626-61.218h133.566V-128h-133.566z"  horiz-adv-x="1024" />

    
    <glyph glyph-name="-trash" unicode="&#58929;" d="M879.304 628.87v66.782h-66.782V762.434h-111.304V896H322.784v-133.564H211.48v-66.782H144.696v-66.782H77.914v-66.782h66.782v-623.304h66.782V-128h601.044v66.782h66.782V562.086h66.782v66.782h-66.782zM389.566 829.218h244.87v-66.782H389.566V829.218zM211.478 762.434v-66.782H144.696v-756.87h66.782V-128h66.782V762.434zM345.044 495.304h66.782v-489.74h-66.782zM612.174 495.304h66.782v-489.74h-66.782zM812.522 762.434h-111.304V896H322.784v-133.564H211.48v-66.782h601.044v66.78z m-178.088 0H389.566V829.218h244.87v-66.784zM879.304 628.87v66.782h-66.782v-66.782H211.478v66.782H144.696v-66.782H77.914v-66.784h66.782v-623.304h66.782V562.086h601.044v-623.304h66.782V562.086h66.782v66.784zM211.478-61.218h601.044V-128H211.478z"  horiz-adv-x="1024" />

    


  </font>
</defs>
</svg>
